<svg width="200" height="185" viewBox="0 0 200 185" fill="none" xmlns="http://www.w3.org/2000/svg">
<path d="M157.09 174.661C156.696 174.586 155.97 174.381 155.474 174.204C153.188 173.386 151.499 171.957 150.586 170.067C150.07 168.998 149.866 168.076 149.902 166.973L149.929 166.129L152.32 166.102C153.635 166.087 154.839 166.098 154.995 166.126C155.273 166.176 155.281 166.191 155.387 166.971C155.581 168.395 156.222 169.391 157.233 169.838C158.417 170.362 160.01 170.023 160.995 169.038C161.607 168.425 161.814 167.952 161.863 167.05C161.899 166.396 161.875 166.219 161.699 165.855C161.193 164.811 159.718 164.003 157.242 163.414C155.946 163.105 154.589 162.605 153.749 162.126C152.819 161.596 151.771 160.608 151.25 159.77C150.078 157.888 149.828 155.294 150.607 153.098C151.369 150.949 153.057 149.329 155.342 148.555C156.454 148.178 157.359 148.043 158.695 148.053C162.49 148.082 165.662 150.051 166.682 153.01C166.957 153.808 167.118 155.067 167.003 155.524L166.942 155.769L164.389 155.768C162.985 155.767 161.794 155.736 161.742 155.698C161.691 155.66 161.575 155.342 161.486 154.992C161.187 153.821 160.472 153.12 159.258 152.809C158.526 152.622 157.822 152.683 157.149 152.992C156.081 153.484 155.601 154.224 155.601 155.383C155.601 156.992 156.148 157.416 160.383 159.094C162.189 159.81 163.405 160.399 164.227 160.955C166.893 162.762 168.037 165.559 167.274 168.408C166.708 170.521 165.585 172.194 163.996 173.292C163.173 173.862 162.542 174.155 161.427 174.487C160.402 174.792 158.239 174.879 157.09 174.661V174.661ZM73.4746 174.428C73.3515 174.35 73.3282 173.03 73.2871 163.786L73.2403 153.233L70.9593 150.892L68.6784 148.551L76.3501 148.552C80.5695 148.553 84.0724 148.586 84.1342 148.625C84.2156 148.677 84.2545 149.351 84.2748 151.061L84.303 153.426L81.5608 153.426L78.8185 153.426V163.973V174.52L76.2169 174.518C74.7416 174.517 73.5544 174.479 73.4746 174.428V174.428ZM64.0057 174.338C63.1803 174.086 62.027 173.294 60.9119 172.212C59.9113 171.242 59.6761 170.898 58.0612 168.051C57.4325 166.942 56.3611 165.094 55.6805 163.943C54.9999 162.792 54.443 161.835 54.443 161.816C54.443 161.798 55.4239 161.769 56.6227 161.752C58.6765 161.724 58.8306 161.71 59.2901 161.502C60.1846 161.098 60.9756 160.062 61.3353 158.825C61.5653 158.034 61.4936 156.399 61.1954 155.633C60.8907 154.851 60.0359 153.994 59.2712 153.704C58.7469 153.505 58.5291 153.488 56.0627 153.447C54.3043 153.418 53.3703 153.368 53.2782 153.297C53.0006 153.085 50.4179 149.018 50.4717 148.878C50.5542 148.663 58.8119 148.671 59.8611 148.887C62.4471 149.42 64.4618 151.022 65.6004 153.452C66.1725 154.673 66.3847 155.673 66.3807 157.129C66.3768 158.575 66.1857 159.412 65.5776 160.645C64.8536 162.113 63.1959 163.525 61.615 164.021C61.4088 164.085 61.2105 164.155 61.1744 164.175C61.1068 164.214 63.5057 168.09 64.269 169.176C64.8765 170.04 67.287 172.412 68.1713 173.016C68.9842 173.571 69.8138 173.952 70.2168 173.955C70.4287 173.957 70.4746 173.999 70.4746 174.192V174.426L67.3573 174.418C65.6428 174.414 64.1346 174.378 64.0057 174.339V174.338ZM47.5527 174.098C47.4902 173.995 46.7473 172.274 45.9018 170.273L44.3647 166.636L43.6146 166.695C40.8156 166.916 38.9189 167.468 37.5308 168.465C36.5076 169.2 36.4282 169.325 35.4012 171.804C34.8786 173.066 34.4035 174.129 34.3453 174.167C34.2871 174.205 33.0106 174.236 31.5087 174.237C29.2694 174.239 28.7581 174.215 28.668 174.106C28.5803 174.001 29.6408 171.562 33.9169 162.036C36.8643 155.47 39.4252 149.769 39.6079 149.368L39.9399 148.639L41.156 148.665L42.3721 148.691L47.8912 161.295C50.9267 168.227 53.4342 173.974 53.4634 174.066C53.5134 174.224 53.349 174.235 50.5914 174.259C47.7523 174.285 47.663 174.28 47.5527 174.098V174.098ZM39.1411 163.796C39.7743 163.476 41.235 163.002 41.9867 162.873C42.3407 162.812 42.6303 162.717 42.6303 162.661C42.6303 162.605 42.2788 161.739 41.8493 160.735C41.4198 159.731 41.0373 158.826 40.9993 158.723C40.9364 158.552 40.922 158.55 40.8414 158.693C40.7926 158.78 40.2869 159.98 39.7176 161.359C39.1484 162.738 38.6613 163.901 38.6352 163.943C38.559 164.066 38.6709 164.034 39.1411 163.796ZM87.7249 161.488V148.644H94.897H102.069V151.035V153.426H97.5689H93.0688V156.191V158.957H97.5689H102.069V161.395V163.832H97.5689H93.0688V166.598V169.364H97.5689H102.069V171.848V174.332H94.897H87.7249V161.488ZM107.413 161.487V148.642L110.852 148.667L114.29 148.691L117.13 156.754C120.792 167.156 120.648 166.754 120.698 166.703C120.722 166.68 122.229 162.617 124.046 157.676L127.351 148.691L130.835 148.667L134.32 148.642V161.487V174.332H131.836H129.352L129.328 164.855L129.304 155.378L125.984 164.857L122.664 174.336L120.748 174.311L118.831 174.286L115.597 165.051C113.818 159.972 112.324 155.776 112.278 155.727C112.229 155.675 112.194 159.486 112.194 164.985V174.332H109.804H107.413L107.413 161.487ZM140.226 162.804V151.275L139.101 150.015C138.482 149.322 137.976 148.73 137.976 148.7C137.976 148.669 139.769 148.644 141.96 148.644H145.945V161.488V174.332H143.085H140.226V162.804ZM156.418 119.075C151.678 115.998 139.696 110.98 133.309 109.398C132.305 109.15 131.89 109.009 131.921 108.926C131.949 108.855 131.914 108.829 131.831 108.861C131.738 108.897 131.636 108.773 131.5 108.458C131.015 107.33 123.379 88.3827 110.631 56.6737C106.018 45.2008 102.214 35.7833 102.178 35.746C102.141 35.7087 98.817 42.9631 94.7905 51.867L87.4697 68.0559C83.8839 70.8146 72.8559 74.0032 73.0344 72.9161C73.062 72.8259 74.2096 70.2209 75.5845 67.127C80.3722 56.3536 90.7858 32.6513 96.6943 19.0792C99.7915 11.9649 100.207 11.1274 100.901 10.5976C102.401 9.45354 104.066 9.9867 104.969 11.9006C105.117 12.2136 106.356 14.8955 107.722 17.8604C109.874 22.5286 117.215 38.3514 123.216 51.2531C126.641 58.337 129.802 65.3998 132.843 71.9084C141.404 90.2351 146.31 100.677 148.979 106.248C149.708 107.772 150.453 109.168 150.929 109.905C152.284 112.004 155.346 116.442 156.843 118.478C157.49 119.357 157.641 119.681 157.401 119.673C157.365 119.671 156.923 119.402 156.418 119.075V119.075ZM52.278 114.767C51.6208 113.879 50.2307 111.641 50.4019 111.747C50.6169 111.88 53.6455 107.528 56.6612 102.753C60.7285 96.3123 62.8935 92.5782 66.0766 86.5136L66.6776 85.3685C71.7259 82.4877 77.7005 79.4047 82.5501 78.8446C82.576 78.8692 69.4049 108.049 69.1078 108.626C69.0074 108.821 68.834 108.916 68.2976 109.073C65.5419 109.879 59.6862 111.923 56.7399 113.107C55.3676 113.659 52.6162 114.827 52.5211 114.899C52.4695 114.937 52.3601 114.878 52.278 114.767V114.767Z" fill="#E8E9EB"/>
<path d="M127.258 47.4206C127.002 46.9203 123.356 38.9635 119.599 30.7046C117.523 26.1412 115.536 21.7755 115.184 21.0031C114.643 19.8141 114.567 19.5864 114.689 19.518C114.955 19.369 116.733 18.7942 117.632 18.5663C119.696 18.0433 121.581 17.8614 123.791 17.9719C126.845 18.1246 129.885 19.1763 132.346 20.9321C133.488 21.7467 135.04 23.2965 135.844 24.4249C136.568 25.441 137.575 27.4022 137.935 28.4936C139.131 32.1291 138.876 35.9498 137.215 39.2664C135.592 42.5073 132.845 45.0891 129.028 46.9612C127.429 47.7453 127.424 47.7466 127.258 47.4206V47.4206ZM140.234 30.7436C140.238 30.6344 140.26 30.6122 140.29 30.687C140.317 30.7547 140.314 30.8355 140.283 30.8667C140.252 30.8978 140.23 30.8424 140.234 30.7436H140.234ZM139.545 29.5623C139.48 29.5206 139.623 29.488 139.875 29.4872C140.12 29.4865 140.32 29.5023 140.32 29.5224C140.32 29.5985 139.656 29.6327 139.545 29.5623V29.5623Z" fill="#AFADB3"/>
<path d="M187.571 153.313C184.392 150.939 182.352 149.489 179.696 147.711C166.362 138.789 151.823 132.518 135.492 128.646C120.739 125.148 103.863 123.709 89.1784 124.696C69.8118 125.998 52.1279 130.704 35.5992 138.953C27.9531 142.769 22.2131 146.267 13.5206 152.411C11.6643 153.722 10.0853 154.832 10.0117 154.877C9.85518 154.971 11.3019 153.065 12.7135 151.316C21.4385 140.51 32.493 131.367 45.0213 124.596C59.0008 117.041 74.5952 112.469 90.7253 111.196C96.5505 110.736 103.236 110.735 109.101 111.192C119.978 112.04 130.979 114.517 141.018 118.378C158.466 125.088 173.681 135.842 186.031 150.191C187.535 151.939 190.11 155.13 189.996 155.106C189.977 155.102 188.886 154.295 187.571 153.313V153.313Z" fill="#22ACDA"/>
<path d="M25.7776 129.683C24.6036 126.922 23.8133 124.277 23.4455 121.878C23.1997 120.275 23.1974 116.065 23.4414 114.519C24.7497 106.226 29.8859 98.5052 38.8568 91.3474C49.3226 82.9967 64.7799 75.4716 84.9135 68.9252C90.4082 67.1386 98.6493 64.6359 105.739 62.6006L107.018 62.2335L108.096 65.0553C108.689 66.6073 109.343 68.3047 109.548 68.8274C109.754 69.35 109.896 69.8178 109.863 69.867C109.804 69.9567 107.399 70.7301 98.4135 73.5484C82.2385 78.6217 73.8716 81.7449 66.3503 85.5171C61.5756 87.9117 58.1095 90.0921 55.2407 92.5056C54.2398 93.3477 52.5135 95.0831 51.7622 96.0027C50.1115 98.0229 48.9266 100.476 48.525 102.706C48.3283 103.798 48.3744 106.019 48.6178 107.173C49.0617 109.279 50.05 111.513 51.5033 113.696C52.3007 114.893 52.3459 114.986 52.1595 115.045C51.68 115.197 47.6447 117.158 45.5842 118.241C38.3666 122.034 31.5189 126.521 27.3319 130.198C26.9355 130.547 26.5335 130.832 26.4386 130.832C26.307 130.832 26.1502 130.559 25.7776 129.683H25.7776ZM128.028 61.5002C127.818 61.0518 127.082 59.4788 126.394 58.0047L125.142 55.3245L127.224 54.2565C140.716 47.3324 148.131 40.7634 147.365 36.4141C147.007 34.3812 145.072 32.7605 141.494 31.4973C140.247 31.0571 140.375 31.1921 140.185 30.1136C140.143 29.8741 140.055 29.7273 139.917 29.6661C139.775 29.6033 140.03 29.5885 140.742 29.6184C142.444 29.6897 145.035 30.4356 147 31.4201C149.853 32.8498 151.735 34.5719 152.687 36.6241C153.186 37.7009 153.36 38.478 153.36 39.6325C153.36 41.668 152.682 43.5424 151.147 45.7517C147.766 50.6196 140.763 55.7992 129.607 61.6837L128.41 62.3154L128.028 61.5002Z" fill="#C01F2E"/>
</svg>
