<svg width="22" height="21" viewBox="0 0 22 21" fill="none" xmlns="http://www.w3.org/2000/svg">
<path d="M11 0C4.9225 0 0 4.8208 0 10.7664C0 15.5242 3.1515 19.5589 7.52125 20.9814C8.07125 21.0828 8.27292 20.7495 8.27292 20.4637C8.27292 20.2081 8.26375 19.5306 8.25917 18.6331C5.19933 19.2823 4.554 17.1887 4.554 17.1887C4.0535 15.9461 3.33025 15.6137 3.33025 15.6137C2.33383 14.9463 3.40725 14.96 3.40725 14.96C4.51183 15.0349 5.09208 16.0693 5.09208 16.0693C6.07292 17.7155 7.667 17.2398 8.29583 16.965C8.39483 16.2684 8.67808 15.7945 8.9925 15.5252C6.54958 15.2558 3.982 14.33 3.982 10.2049C3.982 9.02987 4.40825 8.06936 5.11408 7.31611C4.99033 7.04402 4.61908 5.9493 5.21033 4.46654C5.21033 4.46654 6.13158 4.17802 8.23533 5.57039C9.11533 5.33118 10.0503 5.21249 10.9853 5.20701C11.9203 5.21249 12.8553 5.33118 13.7353 5.57039C15.8253 4.17802 16.7466 4.46654 16.7466 4.46654C17.3378 5.9493 16.9666 7.04402 16.8566 7.31611C17.5578 8.06936 17.9841 9.02987 17.9841 10.2049C17.9841 14.341 15.4128 15.2513 12.9653 15.516C13.3503 15.8392 13.7078 16.4994 13.7078 17.5083C13.7078 18.949 13.6941 20.1067 13.6941 20.4564C13.6941 20.7386 13.8866 21.0755 14.4503 20.9677C18.8513 19.5544 22 15.5169 22 10.7664C22 4.8208 17.0748 0 11 0Z" fill="white"/>
</svg>
