<svg width="210" height="190" viewBox="0 0 210 190" fill="none" xmlns="http://www.w3.org/2000/svg">
<path d="M197.535 27.7338C198.359 27.2577 199.305 27.0366 200.255 27.0986C201.205 27.1607 202.115 27.503 202.87 28.0822C203.625 28.6615 204.192 29.4518 204.498 30.353C204.804 31.2543 204.836 32.226 204.589 33.1454C204.343 34.0647 203.83 34.8904 203.114 35.5179C202.398 36.1454 201.513 36.5465 200.569 36.6706C199.625 36.7947 198.666 36.6361 197.813 36.2149C196.959 35.7937 196.25 35.1289 195.774 34.3045M197.535 27.7338C196.987 28.0493 196.508 28.4696 196.123 28.9705C195.738 29.4717 195.456 30.0439 195.292 30.6543C195.129 31.2647 195.087 31.9013 195.17 32.5278C195.253 33.1539 195.458 33.7577 195.774 34.3045M197.535 27.7338C197.535 27.7337 197.535 27.7335 197.535 27.7333L198.035 28.5997M197.535 27.7338L198.035 28.5997M197.535 27.7338L198.035 28.5997M197.535 27.7338L198.035 28.5997M195.774 34.3045L196.64 33.8048L195.774 34.3054C195.774 34.3051 195.774 34.3048 195.774 34.3045ZM204.584 23.9148L204.585 23.9181C206.558 27.3366 207.839 31.8377 208.338 36.0149C208.586 38.0977 208.636 40.0729 208.49 41.7653C208.361 43.2622 208.082 44.4784 207.693 45.3454C206.692 45.2388 205.463 44.8599 204.086 44.2167C202.538 43.4943 200.862 42.4663 199.199 41.2155C195.865 38.7073 192.666 35.3647 190.698 31.9361L190.695 31.9314C189.988 30.715 189.388 29.4393 188.903 28.1187L188.705 27.5797L188.139 27.4792C186.465 27.1819 184.954 26.6324 183.827 25.7341C182.221 24.4508 181.406 22.6721 181.022 20.8999C180.674 19.2888 180.696 17.7387 180.781 16.708L186.982 19.122L188.012 19.5228L188.308 18.4585C188.439 17.9904 188.593 17.5291 188.77 17.0766L188.775 17.0636C188.82 16.9424 188.907 16.841 189.019 16.7767L189.024 16.7741L192.306 14.874L192.309 14.8721C192.42 14.8071 192.551 14.7832 192.678 14.8044L192.685 14.8056L192.692 14.8067C193.176 14.88 193.655 14.9779 194.128 15.1L195.199 15.376L195.366 14.283L196.375 7.69758C197.312 8.14376 198.663 8.90113 199.882 10.0086C201.225 11.2276 202.359 12.8237 202.672 14.8579C202.886 16.2814 202.602 17.8708 202.015 19.4772L201.818 20.0174L202.186 20.4596C203.084 21.5395 203.886 22.6956 204.584 23.9148ZM191.732 10.4541C191.446 10.267 191.136 10.088 190.847 9.95205L190.845 9.95154C188.448 8.82994 185.726 10.4578 185.486 13.0373L185.486 13.0398C185.458 13.3459 185.43 13.6861 185.433 14.0369C185.179 13.793 184.959 13.5128 184.782 13.2034L184.78 13.2015C184.578 12.8505 184.436 12.2063 184.404 11.2906C184.373 10.4092 184.446 9.40867 184.563 8.44898C184.68 7.49826 184.836 6.61241 184.964 5.96084C185.592 6.17543 186.437 6.4827 187.318 6.85713C188.207 7.23519 189.11 7.67188 189.858 8.13915C190.635 8.62459 191.122 9.06925 191.325 9.42057C191.513 9.74527 191.649 10.0938 191.732 10.4541ZM189 95C189 146.915 146.915 189 95 189C43.0852 189 1 146.915 1 95C1 43.0852 43.0852 1 95 1C146.915 1 189 43.0852 189 95Z" stroke="white" stroke-width="2" stroke-miterlimit="4.13357"/>
</svg>
