<svg width="304" height="304" viewBox="0 0 304 304" fill="none" xmlns="http://www.w3.org/2000/svg">
<path d="M152 0C68.092 0.0960602 0.0960602 68.092 0 152V271.428C0 289.417 14.5827 303.999 32.5714 303.999H76.0002C81.9966 303.999 86.8575 299.138 86.8575 293.142V184.571C86.8575 178.575 81.9966 173.714 76.0002 173.714H32.5714C28.8639 173.753 25.1907 174.433 21.7141 175.722V151.999C21.7141 80.0442 80.0449 21.7134 152 21.7134C223.954 21.7134 282.285 80.0442 282.285 151.999V175.722C278.809 174.433 275.135 173.753 271.428 173.714H228C222.003 173.714 217.142 178.575 217.142 184.571V293.143C217.142 299.139 222.003 304 228 304H271.429C289.417 304 304 289.417 304 271.429V152C303.904 68.092 235.907 0.0960602 152 0Z" fill="white"/>
</svg>
