<svg width="96" height="82" viewBox="0 0 96 82" fill="none" xmlns="http://www.w3.org/2000/svg">
<path d="M51.5688 0.435872C50.4099 -0.193368 48.9992 -0.137961 47.893 0.580345L15.5515 21.586H3.59765C1.61066 21.586 0 23.1966 0 25.1833V56.7058C0 58.6928 1.61066 60.3034 3.59765 60.3034H15.5515L47.893 81.3087C48.4872 81.6945 49.1691 81.8893 49.8528 81.8893C50.4419 81.8893 51.0327 81.7445 51.5691 81.4532C52.7284 80.8236 53.4504 79.6107 53.4504 78.2913V3.59805C53.4501 2.27905 52.728 1.06511 51.5688 0.435872Z" fill="white"/>
<path d="M84.1942 40.9446L94.5231 30.6157C95.718 29.4204 95.718 27.4838 94.5231 26.2885C93.3282 25.0939 91.3912 25.0939 90.1963 26.2885L79.8674 36.6178L69.5384 26.2885C68.3435 25.0939 66.4065 25.0939 65.2116 26.2885C64.0167 27.4838 64.0167 29.4204 65.2116 30.6157L75.5409 40.9446L65.212 51.2735C64.017 52.4688 64.017 54.4054 65.212 55.6007C65.8092 56.198 66.5925 56.4968 67.3754 56.4968C68.1583 56.4968 68.9412 56.198 69.5388 55.6007L79.8677 45.2714L90.1966 55.6007C90.7939 56.198 91.5771 56.4968 92.36 56.4968C93.1429 56.4968 93.9258 56.198 94.5235 55.6007C95.7184 54.4054 95.7184 52.4688 94.5235 51.2735L84.1942 40.9446Z" fill="white"/>
</svg>
