<svg width="361" height="304" viewBox="0 0 361 304" fill="none" xmlns="http://www.w3.org/2000/svg">
<g clip-path="url(#clip0)">
<path d="M332.5 0H28.5C12.787 0 0 12.787 0 28.5V218.5C0 234.213 12.787 247 28.5 247H171V285H104.5C99.256 285 95 289.256 95 294.5C95 299.744 99.256 304 104.5 304H256.5C261.744 304 266 299.744 266 294.5C266 289.256 261.744 285 256.5 285H190V247H332.5C348.213 247 361 234.213 361 218.5V28.5C361 12.787 348.213 0 332.5 0ZM342 218.5C342 223.744 337.744 228 332.5 228H28.5C23.256 228 19 223.744 19 218.5V28.5C19 23.256 23.256 19 28.5 19H332.5C337.744 19 342 23.256 342 28.5V218.5Z" fill="white"/>
</g>
<defs>
<clipPath id="clip0">
<rect width="361" height="304" fill="white"/>
</clipPath>
</defs>
</svg>
