<svg width="94" height="82" viewBox="0 0 94 82" fill="none" xmlns="http://www.w3.org/2000/svg">
<path d="M51.5688 0.435872C50.4099 -0.193368 48.9992 -0.137961 47.893 0.580345L15.5515 21.586H3.59765C1.61066 21.586 0 23.1966 0 25.1833V56.7058C0 58.6928 1.61066 60.3034 3.59765 60.3034H15.5515L47.893 81.3087C48.4872 81.6945 49.1691 81.8893 49.8528 81.8893C50.4419 81.8893 51.0327 81.7445 51.5691 81.4532C52.7284 80.8236 53.4504 79.6107 53.4504 78.2913V3.59805C53.4501 2.27905 52.728 1.06511 51.5688 0.435872Z" fill="white"/>
<path d="M71.4481 17.9209C70.1873 16.6793 68.1649 16.6985 66.9233 17.9465C65.6817 19.2073 65.6945 21.2297 66.9489 22.4777C71.7873 27.2521 74.4497 33.6713 74.4497 40.5513C74.4497 47.4313 71.7873 53.8505 66.9489 58.6249C65.6945 59.8601 65.6817 61.8889 66.9233 63.1497C67.5505 63.7833 68.3761 64.0969 69.1953 64.0969C70.0081 64.0969 70.8209 63.7897 71.4481 63.1689C77.5153 57.1977 80.8497 49.1593 80.8497 40.5513C80.8497 31.9433 77.5153 23.9049 71.4481 17.9209Z" fill="white"/>
<path d="M80.4787 8.92884C79.2179 7.68084 77.1955 7.69364 75.9475 8.94804C74.7059 10.2024 74.7187 12.2312 75.9667 13.4728C83.2435 20.6856 87.2499 30.3112 87.2499 40.5768C87.2499 50.8424 83.2435 60.4616 75.9667 67.6744C74.7187 68.9224 74.7059 70.9512 75.9475 72.2056C76.5811 72.8328 77.4003 73.1464 78.2195 73.1464C79.0323 73.1464 79.8515 72.8392 80.4787 72.2184C88.9779 63.8024 93.6499 52.564 93.6499 40.5768C93.6499 28.5896 88.9779 17.3512 80.4787 8.92884Z" fill="white"/>
</svg>
