<svg width="47" height="51" viewBox="0 0 47 51" fill="none" xmlns="http://www.w3.org/2000/svg">
<path d="M21.9166 0.769441C21.8559 0.731343 21.7855 0.711366 21.7138 0.711881C21.642 0.712435 21.572 0.733329 21.5117 0.772271C17.4751 3.34707 12.975 13.9137 13.1559 22.144C13.1824 23.6063 13.3363 25.0637 13.6159 26.4994C12.2601 27.687 11.1148 29.0761 10.5391 30.643C8.92784 35.0763 11.6419 39.4121 12.9411 41.1395C13.0117 41.2346 13.1035 41.312 13.209 41.3655C13.3146 41.4192 13.4313 41.4475 13.5496 41.4484C13.668 41.4493 13.785 41.4227 13.8915 41.3708C13.9979 41.3188 14.0908 41.2429 14.1629 41.1489L18.4028 35.6103C18.7839 35.968 19.183 36.3062 19.5985 36.6233C19.8833 36.8475 20.2377 36.9648 20.6 36.9549L24.3914 36.8663C24.7537 36.8597 25.1024 36.7269 25.3772 36.4906C25.776 36.1572 26.1577 35.8038 26.5207 35.4318L30.9986 40.768C31.0749 40.8585 31.1711 40.9301 31.2797 40.9773C31.3883 41.0244 31.5063 41.0456 31.6245 41.0395C31.7427 41.0334 31.8579 40.9999 31.961 40.9417C32.0641 40.8836 32.1523 40.8024 32.2188 40.7044C33.4437 38.9299 35.9687 34.4718 34.1547 30.1222C33.51 28.5825 32.3134 27.2487 30.9158 26.125C31.1334 24.6762 31.2243 23.2112 31.1876 21.7466C31.0256 13.5092 26.2185 3.335 21.9166 0.769441ZM22.1502 21.1653C21.3965 21.1823 20.6545 20.9753 20.0184 20.5707C19.3823 20.166 18.8805 19.5816 18.5764 18.8917C18.2724 18.2017 18.1798 17.4371 18.3104 16.6946C18.441 15.9519 18.7889 15.2647 19.3101 14.72C19.8312 14.1751 20.5023 13.7971 21.2384 13.6337C21.9744 13.4703 22.7424 13.5289 23.4451 13.802C24.148 14.0751 24.7539 14.5505 25.1864 15.1681C25.6189 15.7856 25.8586 16.5176 25.8751 17.2714C25.8865 17.7717 25.7993 18.2694 25.6182 18.736C25.4371 19.2026 25.1659 19.629 24.8199 19.9906C24.474 20.3522 24.0601 20.6422 23.602 20.8438C23.1439 21.0453 22.6506 21.1546 22.1502 21.1653Z" fill="white"/>
<path d="M25.6672 38.3387C25.6815 38.9545 25.3218 39.5764 24.8461 40.2839C23.7737 41.8702 21.443 41.9472 20.2985 40.3832C19.8651 39.7896 19.397 38.8121 19.3895 38.4752C19.3886 38.4023 19.3647 38.3315 19.3213 38.2729C19.2778 38.2143 19.2171 38.1709 19.1476 38.1488C19.078 38.1267 19.0034 38.1271 18.9341 38.1499C18.8648 38.1727 18.8045 38.2167 18.7616 38.2758C18.1253 39.1278 17.7923 40.1681 17.8157 41.2313C17.8754 43.8719 22.7636 48.7918 22.7636 48.7918C22.7636 48.7918 27.4315 43.657 27.3718 41.0164C27.35 39.952 26.9705 38.9259 26.2945 38.1035C26.075 37.8528 25.6527 38.0082 25.6672 38.3387Z" fill="white"/>
</svg>
